<?xml version="1.0" encoding="UTF-8" standalone="no"?>
<!-- Created with Inkscape (http://www.inkscape.org/) -->

<svg
   width="29.998669mm"
   height="30.022675mm"
   viewBox="0 0 29.998669 30.022675"
   version="1.1"
   id="svg5"
   sodipodi:docname="username.svg"
   inkscape:version="1.1 (c68e22c387, 2021-05-23)"
   xmlns:inkscape="http://www.inkscape.org/namespaces/inkscape"
   xmlns:sodipodi="http://sodipodi.sourceforge.net/DTD/sodipodi-0.dtd"
   xmlns="http://www.w3.org/2000/svg"
   xmlns:svg="http://www.w3.org/2000/svg">
  <sodipodi:namedview
     id="namedview7"
     pagecolor="#ffffff"
     bordercolor="#666666"
     borderopacity="1.0"
     inkscape:pageshadow="2"
     inkscape:pageopacity="0.0"
     inkscape:pagecheckerboard="0"
     inkscape:document-units="mm"
     showgrid="true"
     width="200mm"
     inkscape:zoom="1.9598766"
     inkscape:cx="52.299212"
     inkscape:cy="43.625197"
     inkscape:window-width="1264"
     inkscape:window-height="761"
     inkscape:window-x="0"
     inkscape:window-y="0"
     inkscape:window-maximized="0"
     inkscape:current-layer="svg5">
    <inkscape:grid
       type="xygrid"
       id="grid843"
       originx="-2.2064294"
       originy="-12.874998" />
  </sodipodi:namedview>
  <defs
     id="defs2" />
  <path
     id="path8506"
     style="fill:none;stroke:#0062ff;stroke-width:1.75558;stroke-linecap:butt;stroke-linejoin:miter;stroke-miterlimit:4;stroke-dasharray:none;stroke-opacity:1"
     d="m 20.447692,17.279161 c 0,0 5.38006,1.361143 5.811582,10.021162 M 19.485433,5.9248626 A 3.7730945,5.3514903 0 0 1 20.020762,8.672526 3.7730945,5.3514903 0 0 1 19.922649,9.8725701 3.4246351,4.2350984 0 0 0 20.136327,8.4082969 3.4246351,4.2350984 0 0 0 19.485433,5.9248626 Z M 11.730321,14.77387 c 0,0 -3.6322395,-2.50529 -2.9057921,-6.6807736 C 9.5509775,3.9176125 11.730321,2.247419 15.362559,2.247419 c 3.632239,0 5.811582,3.3403871 5.811582,6.6807741 0,3.3403869 -2.905792,5.8456769 -2.905792,5.8456769 m 9.443821,13.361549 c 0,0 0.726448,-13.361548 -9.443821,-13.361548 M 2.2865001,28.135417 c 0,0 -0.7264477,-13.361547 9.4438209,-13.361547" />
</svg>
